# xmcd CD database file
#
# Track frame offsets:
#	150
#	21087
#	37540
#	63487
#	83292
#	103819
#	131363
#	154756
#	180198
#	206977
#	229555
#
# Disc length: 3419 seconds
#
# Revision: 0
# Processed by: cddbd v1.5.2PL0 Copyright (c) Steve Scherf et al.
# Submitted via: CDex 1.51
#
DISCID=780d590b
DTITLE=Orchesta Sublime - Sublime Habana
DYEAR=1900
DGENRE=Salsa
TTITLE0=Hay que sembrar
TTITLE1=Eres la chica ideal
TTITLE2=El que mas goza
TTITLE3=Dulce ternura
TTITLE4=La pachanga
TTITLE5=Y que feliz me siento ahora
TTITLE6=Sabroso como el guarapo
TTITLE7=El fiel enemorado
TTITLE8=Potpourri de sones
TTITLE9=Imporancia
TTITLE10=Mi Yambu
EXTD=
EXTT0=
EXTT1=
EXTT2=
EXTT3=
EXTT4=
EXTT5=
EXTT6=
EXTT7=
EXTT8=
EXTT9=
EXTT10=
PLAYORDER=
